# xmcd
#
# Track frame offsets:
#	150
#	3036
#	16756
#	33776
#	41505
#	56132
#	68055
#	81661
#	95125
#	112188
#	122139
#	142894
#	161819
#	178450
#	194581
#	209518
#	228772
#	250512
#	269955
#	287164
#	297845
#	311635
#
# Disc length: 4518 seconds
#
# Revision: 1
# Processed by: cddbd v1.5.2PL0 Copyright (c) Steve Scherf et al.
# Submitted via: audiograbber 1.83.01
#
DISCID=4d11a416
DTITLE=Various Artist - Macca's Top 100 [Disc 2]
DYEAR=2012
DGENRE=Country
TTITLE0=Bob Haddock - What Australia Means To Me (Poem)
TTITLE1=Ian McNamara with Kevin Bennett and Digger Revell - Bushranger
TTITLE2=Yellow Box - Down On Some Australian Coast
TTITLE3=Joanne and Gillian Vogel - Shut The Gate
TTITLE4=Penny Davies and Roger Hott - Hey Rain!
TTITLE5=Ian McNamara - Spies Like Us
TTITLE6=Don Morrison - Moonlight Midnight
TTITLE7=John Broomhall - Free As The Breeze
TTITLE8=Kevin Bennett and The Flood - You
TTITLE9=Bill Eckelschot - Dutchman's Lament
TTITLE10=Bob Campbell - Pamulwuy
TTITLE11=The BOBKATZ - Little River Town (Howlong NSW)
TTITLE12=The Goodwills - Courting The Net
TTITLE13=Neil Adam - Old Grey Fergie
TTITLE14=Brian Young - Big Fella Wadumbah
TTITLE15=Enda Kenny - Easter Island
TTITLE16=Ted Egan - Sayonara Nakamura
TTITLE17=The Metropolitan Male Choir of South Australia - Rain On The Track
TTITLE18=Harry Young - Thanks Old Fella'
TTITLE19=Michael O'Sullivan - Magpies
TTITLE20=Country Brass - I've Been Everywhere
TTITLE21=Peter Harris - Endless Flight
EXTD=
EXTT0=
EXTT1=
EXTT2=
EXTT3=
EXTT4=
EXTT5=
EXTT6=
EXTT7=
EXTT8=
EXTT9=
EXTT10=
EXTT11=
EXTT12=
EXTT13=
EXTT14=
EXTT15=
EXTT16=
EXTT17=
EXTT18=
EXTT19=
EXTT20=
EXTT21=
PLAYORDER=
